<?xml version="1.0" standalone="no"?>
<!DOCTYPE svg PUBLIC "-//W3C//DTD SVG 20010904//EN"
 "http://www.w3.org/TR/2001/REC-SVG-20010904/DTD/svg10.dtd">
<svg version="1.0" xmlns="http://www.w3.org/2000/svg"
 width="38.000000pt" height="39.000000pt" viewBox="0 0 38.000000 39.000000"
 preserveAspectRatio="xMidYMid meet">

<g transform="translate(0.000000,39.000000) scale(0.100000,-0.100000)"
fill="#000000" stroke="none">
<path d="M64 371 c-58 -35 -64 -53 -64 -184 l0 -119 34 -34 34 -34 116 0 117
0 39 39 40 39 0 115 c0 126 -10 151 -70 182 -45 23 -206 20 -246 -4z m186
-101 c30 -30 25 -64 -12 -93 -27 -22 -30 -28 -19 -41 7 -8 10 -20 6 -26 -4 -7
-18 4 -35 27 -32 43 -31 53 10 53 31 0 51 24 42 50 -8 22 -23 30 -64 30 l-36
0 -1 -86 c0 -78 -4 -105 -15 -93 -5 5 -9 89 -7 152 l1 47 55 0 c42 0 60 -5 75
-20z"/>
</g>
</svg>
